Coordinates
version=1
nRows=65
nColumns=12
inDegrees=yes

Units are S.I. units (second, meters, Newtons, ...)
Angles are in degrees

endheader
time	SC_y	SC_z	SC_x	AC_y	AC_z	AC_x	GH_y	GH_z	GH_yy	EL_x	PS_y
       0.0               -16.5          36.66          44.73          48.51         -18.82          10.42         -124.1          75.73         -96.68          31.95          146.5
   0.01922              -16.51          36.66          44.73          48.51         -18.82          10.41         -124.1          75.72         -96.67          31.95          146.5
   0.03843              -16.51          36.65          44.73          48.51         -18.82          10.41         -124.0          75.71         -96.66          31.96          146.5
   0.05765              -16.52          36.65          44.72          48.51         -18.82          10.41         -124.0          75.69         -96.65          31.97          146.5
   0.07686              -16.52          36.65          44.72          48.51         -18.81           10.4         -124.0          75.68         -96.64          31.98          146.4
   0.09608              -16.52          36.65          44.72          48.51         -18.81           10.4         -123.9          75.67         -96.62          31.99          146.4
    0.1153              -16.53          36.65          44.72          48.51         -18.81           10.4         -123.9          75.65         -96.61          31.99          146.4
    0.1345              -16.54          36.64          44.71          48.51          -18.8          10.39         -123.9          75.64         -96.59           32.0          146.4
    0.1537              -16.54          36.64          44.71          48.51          -18.8          10.39         -123.8          75.62         -96.58          32.02          146.4
    0.1729              -16.55          36.64          44.71          48.51          -18.8          10.38         -123.8           75.6         -96.56          32.03          146.4
    0.1922              -16.56          36.64          44.71          48.51         -18.79          10.38         -123.7          75.58         -96.54          32.04          146.4
    0.2114              -16.56          36.63           44.7          48.51         -18.79          10.37         -123.7          75.56         -96.52          32.05          146.4
    0.2306              -16.57          36.63           44.7          48.52         -18.78          10.37         -123.6          75.53          -96.5          32.07          146.4
    0.2498              -16.58          36.63           44.7          48.52         -18.78          10.36         -123.6          75.51         -96.48          32.08          146.4
     0.269              -16.59          36.62          44.69          48.52         -18.77          10.35         -123.5          75.48         -96.45           32.1          146.4
    0.2882               -16.6          36.62          44.69          48.52         -18.77          10.35         -123.4          75.45         -96.42          32.12          146.4
    0.3075              -16.61          36.62          44.68          48.52         -18.76          10.34         -123.3          75.42         -96.39          32.13          146.4
    0.3267              -16.62          36.61          44.68          48.52         -18.75          10.33         -123.2          75.38         -96.36          32.16          146.4
    0.3459              -16.64          36.61          44.67          48.52         -18.74          10.32         -123.1          75.34         -96.32          32.18          146.3
    0.3651              -16.65           36.6          44.66          48.53         -18.74          10.31         -123.0           75.3         -96.28           32.2          146.3
    0.3843              -16.67          36.59          44.66          48.53         -18.73           10.3         -122.9          75.26         -96.24          32.23          146.3
    0.4035              -16.68          36.59          44.65          48.53         -18.72          10.28         -122.8          75.21         -96.19          32.26          146.3
    0.4227               -16.7          36.58          44.64          48.53          -18.7          10.27         -122.7          75.15         -96.14           32.3          146.3
     0.442              -16.73          36.57          44.63          48.54         -18.69          10.25         -122.5          75.09         -96.08          32.33          146.3
    0.4612              -16.75          36.56          44.62          48.54         -18.68          10.23         -122.3          75.02         -96.01          32.37          146.2
    0.4804              -16.78          36.55          44.61          48.54         -18.66          10.21         -122.1          74.94         -95.94          32.42          146.2
    0.4996              -16.81          36.54           44.6          48.55         -18.64          10.19         -121.9          74.85         -95.86          32.47          146.2
    0.5188              -16.84          36.53          44.58          48.55         -18.62          10.17         -121.7          74.76         -95.77          32.53          146.1
     0.538              -16.88          36.51          44.57          48.56          -18.6          10.14         -121.4          74.65         -95.66           32.6          146.1
    0.5573              -16.92          36.49          44.55          48.56         -18.58          10.11         -121.1          74.52         -95.55          32.67          146.1
    0.5765              -16.97          36.48          44.52          48.57         -18.55          10.07         -120.7          74.38         -95.41          32.76          146.0
    0.5957              -17.03          36.45           44.5          48.58         -18.51          10.03         -120.3          74.22         -95.26          32.86          146.0
    0.6149              -17.09          36.43          44.47          48.58         -18.47          9.981         -119.9          74.03         -95.08          32.97          145.9
    0.6341              -17.17           36.4          44.44          48.59         -18.43          9.924         -119.3          73.81         -94.87           33.1          145.8
    0.6533              -17.26          36.36           44.4          48.61         -18.38          9.859         -118.7          73.55         -94.63          33.25          145.8
    0.6726              -17.36          36.32          44.35          48.62         -18.31          9.781         -117.9          73.25         -94.35          33.44          145.7
    0.6918              -17.49          36.28           44.3          48.64         -18.24          9.689         -117.0          72.89         -94.01          33.65          145.5
     0.711              -17.64          36.22          44.23          48.66         -18.15          9.579         -116.0          72.46          -93.6          33.91          145.4
    0.7302              -17.82          36.15          44.16          48.68         -18.05          9.445         -114.7          71.94         -93.11          34.22          145.2
    0.7494              -18.04          36.06          44.06          48.71         -17.92          9.282         -113.1           71.3         -92.51           34.6          145.0
    0.7686              -18.31          35.96          43.94          48.74         -17.75           9.08         -111.1          70.51         -91.77          35.08          144.8
    0.7878              -18.65          35.82          43.79          48.79         -17.55          8.829         -108.7          69.53         -90.84          35.66          144.5
    0.8071              -19.08          35.66           43.6          48.84          -17.3          8.513         -105.6           68.3         -89.68           36.4          144.1
    0.8263              -19.62          35.45          43.37          48.92         -16.98           8.11         -101.7          66.73          -88.2          37.34          143.5
    0.8455              -20.32          35.18          43.06          49.01         -16.57          7.596         -96.66          64.72         -86.31          38.55          142.9
    0.8647              -21.21          34.83          42.67          49.12         -16.04          6.935         -90.23          62.14         -83.88           40.1          142.1
    0.8839              -22.35          34.39          42.17          49.27         -15.36          6.091         -82.02          58.84         -80.77          42.07          141.0
    0.9031              -23.79          33.83          41.55          49.46         -14.51           5.03         -71.69           54.7         -76.87          44.55          139.6
    0.9224              -25.54          33.15          40.78          49.69         -13.48          3.736         -59.11          49.65         -72.11          47.58          138.0
    0.9416              -27.56          32.37           39.9          49.96         -12.28          2.238         -44.52           43.8          -66.6          51.09          136.1
    0.9608              -29.76          31.52          38.94          50.24         -10.98         0.6144         -28.73          37.47         -60.63          54.88          134.1
      0.98              -31.95          30.67          37.98          50.53          -9.68         -1.009         -12.94          31.13         -54.66          58.68          132.0
    0.9992              -33.98          29.88           37.1           50.8         -8.481         -2.508          1.643          25.28         -49.15          62.19          130.1
     1.018              -35.73           29.2          36.33          51.02         -7.446         -3.801          14.23          20.23         -44.39          65.21          128.5
     1.038              -37.17          28.65          35.71          51.21         -6.597         -4.862          24.55          16.09         -40.49           67.7          127.1
     1.057              -38.31           28.2          35.21          51.36         -5.921         -5.706          32.76          12.79         -37.38          69.67          126.1
     1.076               -39.2          27.86          34.82          51.48         -5.393         -6.367          39.19          10.22         -34.95          71.22          125.2
     1.095               -39.9          27.59          34.51          51.57         -4.981         -6.882           44.2          8.206         -33.06          72.42          124.6
     1.115              -40.44          27.38          34.28          51.64         -4.659         -7.284          48.11          6.636         -31.58          73.36          124.1
     1.134              -40.87          27.21          34.09           51.7         -4.406           -7.6          51.19          5.401         -30.42           74.1          123.7
     1.153              -41.21          27.08          33.94          51.74         -4.205         -7.851          53.64           4.42         -29.49          74.69          123.3
     1.172              -41.48          26.97          33.82          51.78         -4.043         -8.053           55.6          3.634         -28.75          75.16          123.1
     1.191               -41.7          26.89          33.73          51.81         -3.913         -8.216          57.18          2.997         -28.15          75.55          122.9
     1.211              -41.88          26.82          33.65          51.83         -3.806          -8.35          58.48          2.475         -27.66          75.86          122.7
      1.23              -42.03          26.76          33.58          51.85         -3.717          -8.46          59.56          2.044         -27.25          76.12          122.6
